<?xml version="1.0" encoding="UTF-8"?><svg xmlns="http://www.w3.org/2000/svg" viewBox="0 0 36 36">
 <g id="change1_1"><path d="m36 27c0 2.209-1.791 4-4 4h-28c-2.209 0-4-1.791-4-4v-18c0-2.209 1.791-4 4-4h28c2.209 0 4 1.791 4 4v18z" fill="#CCD6DD"/></g>
 <g id="change2_1"><path d="m11.95 17.636l-11.313 11.313c-0.027 0.028-0.037 0.063-0.06 0.091 0.34 0.57 0.814 1.043 1.384 1.384 0.029-0.023 0.063-0.033 0.09-0.06l11.314-11.314c0.39-0.391 0.39-1.023 0-1.414-0.392-0.391-1.024-0.391-1.415 0m23.473 11.404c-0.021-0.028-0.033-0.063-0.06-0.09l-11.312-11.314c-0.392-0.391-1.024-0.391-1.415 0-0.391 0.392-0.391 1.024 0 1.414l11.313 11.314c0.026 0.026 0.062 0.037 0.09 0.06 0.571-0.34 1.044-0.814 1.384-1.384" fill="#99AAB5"/></g>
 <g id="change2_2"><path d="m32 5h-28c-2.209 0-4 1.791-4 4v1.03l14.528 14.496c1.894 1.893 4.988 1.893 6.884 0l14.588-14.517v-1.009c0-2.209-1.791-4-4-4z" fill="#99AAB5"/></g>
 <g id="change3_1"><path d="m32 5h-28c-1.588 0-2.949 0.934-3.595 2.275l14.766 14.767c1.562 1.562 4.096 1.562 5.657 0l14.767-14.767c-0.646-1.341-2.006-2.275-3.595-2.275z" fill="#E1E8ED"/></g>
</svg>